<svg xmlns="http://www.w3.org/2000/svg" version="1.1" xmlns:xlink="http://www.w3.org/1999/xlink" xmlns:svgjs="http://svgjs.dev/svgjs" width="2000" height="1247" viewBox="0 0 2000 1247"><g transform="matrix(1,0,0,1,-1.2121212121212466,0.504858299595071)"><svg viewBox="0 0 396 247" data-background-color="#ffffff" preserveAspectRatio="xMidYMid meet" height="1247" width="2000" xmlns="http://www.w3.org/2000/svg" xmlns:xlink="http://www.w3.org/1999/xlink"><g id="tight-bounds" transform="matrix(1,0,0,1,0.2400000000000091,-0.09999999999999432)"><svg viewBox="0 0 395.52 247.2" height="247.2" width="395.52"><rect width="395.52" height="247.2" fill="url(#078e28a4-410a-4ca3-ae9c-8558b9f541d1)" mask="url(#4b29600a-4176-490a-a4c3-363d3b270cd0)" data-fill-palette-color="tertiary"></rect><g><svg></svg></g><g><svg viewBox="0 0 395.52 247.2" height="247.2" width="395.52"><g transform="matrix(1,0,0,1,152.1858756302521,47.215199999999996)"><svg viewBox="0 0 91.1482487394958 152.7696" height="152.7696" width="91.1482487394958"><g><svg viewBox="0 0 91.1482487394958 152.7696" height="152.7696" width="91.1482487394958"><g><svg viewBox="0 0 91.1482487394958 152.7696" height="152.7696" width="91.1482487394958"><g><svg viewBox="0 0 91.1482487394958 152.7696" height="152.7696" width="91.1482487394958"><g id="textblocktransform"><svg viewBox="0 0 91.1482487394958 152.7696" height="152.7696" width="91.1482487394958" id="textblock"><g><svg viewBox="0 0 91.1482487394958 152.7696" height="152.7696" width="91.1482487394958"><g transform="matrix(1,0,0,1,0,0)"><svg width="91.1482487394958" viewBox="0.6 -35.2 21.299999999999997 35.7" height="152.7696" data-palette-color="#6ee2f5"><g class="wordmark-text-0" data-fill-palette-color="primary" id="text-0"><path d="M7.8 0.5Q5.55 0.5 3.95-0.43 2.35-1.35 1.53-2.65 0.7-3.95 0.6-5.1L0.6-5.1Q0.6-6.1 1.15-7.15 1.7-8.2 2.45-8.9 3.2-9.6 3.6-9.6L3.6-9.6Q3.85-9.6 3.85-9.3L3.85-9.3Q4.1-6.55 5.35-4.28 6.6-2 9.85-2L9.85-2Q12.45-2 14-3.6 15.55-5.2 15.55-8.05L15.55-8.05Q15.55-9.75 14.9-11.2 14.25-12.65 12.75-14.45L12.75-14.45 7.85-20.25Q7.05-21.3 6.6-22.43 6.15-23.55 6.15-25.15L6.15-25.15Q6.15-27.75 7.35-30.05 8.55-32.35 10.85-33.77 13.15-35.2 16.2-35.2L16.2-35.2Q18.7-35.2 20.3-34.18 21.9-33.15 21.9-31.25L21.9-31.25Q21.9-29.8 20.7-27.9L20.7-27.9Q20.25-27.15 19.7-27.15L19.7-27.15Q19.3-27.15 19.18-27.53 19.05-27.9 18.95-28.9L18.95-28.9Q18.8-32.9 14.65-32.9L14.65-32.9Q12.15-32.9 10.75-31.63 9.35-30.35 9.35-28.15L9.35-28.15Q9.35-25.95 11.2-23.7L11.2-23.7 16-18.15Q19.1-14.5 19.1-10.5L19.1-10.5Q19.1-7.6 17.48-5.08 15.85-2.55 13.23-1.03 10.6 0.5 7.8 0.5L7.8 0.5Z" fill="#6ee2f5" data-fill-palette-color="primary"></path></g></svg></g></svg></g></svg></g></svg></g></svg></g></svg></g></svg></g><path d="M334.487 41.215L334.487 0 87.287 0 87.287 247.2 334.487 247.2 334.487 205.985 320.71 205.985 320.71 233.423 101.064 233.423 101.064 13.777 320.71 13.777 320.71 41.215Z" fill="url(#078e28a4-410a-4ca3-ae9c-8558b9f541d1)" stroke="transparent" data-fill-palette-color="tertiary"></path></svg></g><defs></defs><mask id="4b29600a-4176-490a-a4c3-363d3b270cd0"><g id="SvgjsG1451"><svg viewBox="0 0 395.52 247.2" height="247.2" width="395.52"><g><svg></svg></g><g><svg viewBox="0 0 395.52 247.2" height="247.2" width="395.52"><g transform="matrix(1,0,0,1,152.1858756302521,47.215199999999996)"><svg viewBox="0 0 91.1482487394958 152.7696" height="152.7696" width="91.1482487394958"><g><svg viewBox="0 0 91.1482487394958 152.7696" height="152.7696" width="91.1482487394958"><g><svg viewBox="0 0 91.1482487394958 152.7696" height="152.7696" width="91.1482487394958"><g><svg viewBox="0 0 91.1482487394958 152.7696" height="152.7696" width="91.1482487394958"><g id="SvgjsG1450"><svg viewBox="0 0 91.1482487394958 152.7696" height="152.7696" width="91.1482487394958" id="SvgjsSvg1449"><g><svg viewBox="0 0 91.1482487394958 152.7696" height="152.7696" width="91.1482487394958"><g transform="matrix(1,0,0,1,0,0)"><svg width="91.1482487394958" viewBox="0.6 -35.2 21.299999999999997 35.7" height="152.7696" data-palette-color="#6ee2f5"><g class="wordmark-text-0" data-fill-palette-color="primary" id="SvgjsG1448"><path d="M7.8 0.5Q5.55 0.5 3.95-0.43 2.35-1.35 1.53-2.65 0.7-3.95 0.6-5.1L0.6-5.1Q0.6-6.1 1.15-7.15 1.7-8.2 2.45-8.9 3.2-9.6 3.6-9.6L3.6-9.6Q3.85-9.6 3.85-9.3L3.85-9.3Q4.1-6.55 5.35-4.28 6.6-2 9.85-2L9.85-2Q12.45-2 14-3.6 15.55-5.2 15.55-8.05L15.55-8.05Q15.55-9.75 14.9-11.2 14.25-12.65 12.75-14.45L12.75-14.45 7.85-20.25Q7.05-21.3 6.6-22.43 6.15-23.55 6.15-25.15L6.15-25.15Q6.15-27.75 7.35-30.05 8.55-32.35 10.85-33.77 13.15-35.2 16.2-35.2L16.2-35.2Q18.7-35.2 20.3-34.18 21.9-33.15 21.9-31.25L21.9-31.25Q21.9-29.8 20.7-27.9L20.7-27.9Q20.25-27.15 19.7-27.15L19.7-27.15Q19.3-27.15 19.18-27.53 19.05-27.9 18.95-28.9L18.95-28.9Q18.8-32.9 14.65-32.9L14.65-32.9Q12.15-32.9 10.75-31.63 9.35-30.35 9.35-28.15L9.35-28.15Q9.35-25.95 11.2-23.7L11.2-23.7 16-18.15Q19.1-14.5 19.1-10.5L19.1-10.5Q19.1-7.6 17.48-5.08 15.85-2.55 13.23-1.03 10.6 0.5 7.8 0.5L7.8 0.5Z" fill="black"></path></g></svg></g></svg></g></svg></g></svg></g></svg></g></svg></g></svg></g><path d="M334.487 41.215L334.487 0 87.287 0 87.287 247.2 334.487 247.2 334.487 205.985 320.71 205.985 320.71 233.423 101.064 233.423 101.064 13.777 320.71 13.777 320.71 41.215Z" fill="white" stroke="transparent"></path></svg></g><defs><mask></mask></defs></svg><rect width="395.52" height="247.2" fill="black" stroke="none" visibility="hidden"></rect></g></mask><linearGradient x1="0" x2="1" y1="0.578" y2="0.595" id="078e28a4-410a-4ca3-ae9c-8558b9f541d1"><stop stop-color="#6ee2f5" offset="0"></stop><stop stop-color="#6454f0" offset="1"></stop></linearGradient></svg><rect width="395.52" height="247.2" fill="none" stroke="none" visibility="hidden"></rect></g></svg></g></svg>