<svg xmlns="http://www.w3.org/2000/svg" data-name="Layer 1" viewBox="0 0 168 168" id="machine"><circle cx="2" cy="149.697" r="2" fill="#2d4356"></circle><path fill="#2d4356" d="M11 147.69677H8a2 2 0 0 0 0 4h3a2 2 0 0 0 0-4zM160 147.69677h-3a2 2 0 0 0 0 4h3a2 2 0 0 0 0-4z"></path><circle cx="166" cy="149.697" r="2" fill="#2d4356"></circle><path fill="#0bceb2" d="M118.15387 155.69677h-8.30774a2.00641 2.00641 0 0 0 0 4h8.30774a2.00641 2.00641 0 0 0 0-4zM58.15387 155.69677H49.84613a2.00641 2.00641 0 0 0 0 4h8.30774a2.00641 2.00641 0 0 0 0-4zM104 155.69677H64a2 2 0 0 0 0 4H79.94v2H72a2 2 0 0 0 0 4H97a2 2 0 0 0 0-4H88.06v-2H104a2 2 0 0 0 0-4z"></path><path fill="#2d4356" d="M125,128.70318a12.00073,12.00073,0,1,0-12-12.00073A12.01379,12.01379,0,0,0,125,128.70318Zm0-20.00122a8.00049,8.00049,0,1,1-8,8.00049A8.00943,8.00943,0,0,1,125,108.702Z"></path><path fill="#0bceb2" d="M124.5,118.70257h1a2.00012,2.00012,0,0,0,0-4.00024h-1a2.00012,2.00012,0,0,0,0,4.00024Z"></path><path fill="#2d4356" d="M31,116.70245a12,12,0,1,0,12-12.00073A12.01379,12.01379,0,0,0,31,116.70245ZM43,108.702a8.00049,8.00049,0,1,1-8,8.00049A8.00943,8.00943,0,0,1,43,108.702Z"></path><path fill="#0bceb2" d="M42.5,118.70257h1a2.00012,2.00012,0,0,0,0-4.00024h-1a2.00012,2.00012,0,0,0,0,4.00024Z"></path><path fill="#2d4356" d="M24 41.69787H57V37.69762H24V33.69738H57V29.69714H24a4.00471 4.00471 0 0 0-4 4.00024v4.00024A4.00471 4.00471 0 0 0 24 41.69787zM148 37.69762V33.69738a4.00471 4.00471 0 0 0-4-4.00024H111v4.00024h33l.00244 4.00024H111v4.00024h33A4.00471 4.00471 0 0 0 148 37.69762zM67 47.69823h34a6.00676 6.00676 0 0 0 6-6.00037V29.69714a6.00672 6.00672 0 0 0-6-6.00037H67a6.00672 6.00672 0 0 0-6 6.00037V41.69787A6.00676 6.00676 0 0 0 67 47.69823zm-2-18.0011A2.002 2.002 0 0 1 67 27.697h34a2.002 2.002 0 0 1 2 2.00012V41.69787a2.002 2.002 0 0 1-2 2.00012H67a2.002 2.002 0 0 1-2-2.00012zM102 71.6997V65.69933A6.00676 6.00676 0 0 0 96 59.699H90V51.69848H86V59.699H82V51.69848H78V59.699H72a6.00676 6.00676 0 0 0-6 6.00037V71.6997h4V65.69933a2.002 2.002 0 0 1 2-2.00012H96a2.002 2.002 0 0 1 2 2.00012V71.6997z"></path><circle cx="84" cy="35.697" r="2" fill="#0bceb2"></circle><circle cx="84" cy="69.7" r="2" fill="#0bceb2"></circle><path fill="#0bceb2" d="M55,79.70019V89.7008a6.00676,6.00676,0,0,0,6,6.00037h4.24072a9.56186,9.56186,0,0,1,1.78674-4.00024H61a2.00236,2.00236,0,0,1-2-2.00012l-.00244-10.00061H109V89.7008a2.00236,2.00236,0,0,1-2,2.00012h-6.02905a9.58925,9.58925,0,0,1,1.78479,4.00024H107a6.00676,6.00676,0,0,0,6-6.00037V79.70019a4.00471,4.00471,0,0,0-4-4.00024H59A4.00471,4.00471,0,0,0,55,79.70019Z"></path><path fill="#2d4356" d="M102,106.47851v-1.554a5.5597,5.5597,0,0,0-3.52985-5.21692,5.561,5.561,0,0,0-1.18982-6.18268L96.1814,92.4248a5.68232,5.68232,0,0,0-3.98181-1.668,5.33852,5.33852,0,0,0-2.20569.47052,5.56133,5.56133,0,0,0-5.2168-3.52661H83.22382a5.56136,5.56136,0,0,0-5.217,3.52643,5.33594,5.33594,0,0,0-2.20453-.47034,5.68188,5.68188,0,0,0-3.97675,1.662l-1.10535,1.10706a5.553,5.553,0,0,0-1.19159,6.18195A5.55973,5.55973,0,0,0,66,104.92449v1.554a5.56089,5.56089,0,0,0,3.5304,5.21814,5.56084,5.56084,0,0,0,1.19312,6.186l1.09656,1.09729a5.68977,5.68977,0,0,0,3.98236,1.66675,5.34479,5.34479,0,0,0,2.20447-.4696,5.56176,5.56176,0,0,0,5.21692,3.52582H84.7771a5.56152,5.56152,0,0,0,5.217-3.52679,5.335,5.335,0,0,0,2.20508.47058,5.68086,5.68086,0,0,0,3.97723-1.66235l1.1026-1.10272a5.57013,5.57013,0,0,0,1.19116-6.18542A5.56121,5.56121,0,0,0,102,106.47851Zm-4,0a1.47779,1.47779,0,0,1-1.38354,1.55695H94.63538a10.88741,10.88741,0,0,1-1.46509,3.53656l1.40161,1.40167a1.47967,1.47967,0,0,1-.12128,2.07935l-1.09906,1.09912a1.64631,1.64631,0,0,1-1.1524.49426,1.29726,1.29726,0,0,1-.92664-.37079l-1.40289-1.40521a10.81015,10.81015,0,0,1-3.535,1.46674v1.983a1.47826,1.47826,0,0,1-1.5575,1.38251H83.22382a1.47821,1.47821,0,0,1-1.55774-1.38251v-1.983a10.808,10.808,0,0,1-3.535-1.46674l-1.40118,1.40521a1.2997,1.2997,0,0,1-.92749.37079,1.64889,1.64889,0,0,1-1.15308-.49426L73.551,115.053a1.4785,1.4785,0,0,1-.12378-2.07935l1.40363-1.40167a10.85411,10.85411,0,0,1-1.46509-3.53656H71.38239A1.47694,1.47694,0,0,1,70,106.47851v-1.554a1.47506,1.47506,0,0,1,1.38239-1.55609h1.98334a10.82294,10.82294,0,0,1,1.46509-3.53577L73.42719,98.43a1.47662,1.47662,0,0,1,.12378-2.07782L74.64929,95.252A1.64735,1.64735,0,0,1,75.802,94.757a1.29714,1.29714,0,0,1,.92786.37274L78.131,96.53155a10.82576,10.82576,0,0,1,3.535-1.465V93.0841a1.477,1.477,0,0,1,1.55774-1.38318H84.7771a1.477,1.477,0,0,1,1.5575,1.38318v1.98242a10.828,10.828,0,0,1,3.535,1.465l1.40289-1.40186a1.2939,1.2939,0,0,1,.92706-.37274,1.645,1.645,0,0,1,1.152.49506l1.09906,1.10016A1.47779,1.47779,0,0,1,94.5719,98.43l-1.40161,1.40265a10.856,10.856,0,0,1,1.46509,3.53577h1.98108A1.47592,1.47592,0,0,1,98,104.92449Z"></path><path fill="#0bceb2" d="M83.99951,98.70135A7.00043,7.00043,0,1,0,91,105.70177,7.00828,7.00828,0,0,0,83.99951,98.70135Zm0,10.00061A3.00018,3.00018,0,1,1,87,105.70177,3.00325,3.00325,0,0,1,83.99951,108.702Z"></path><path fill="#2d4356" d="M64.05029 99.70141H61a9.95989 9.95989 0 0 1-2.32275-.28345L53.467 104.62859a16.11793 16.11793 0 0 1 2.67938 2.97717zM47.84985 101.45776L53.27039 96.037a9.97813 9.97813 0 0 1-1.91663-3.74036l-8.40717 8.40747c.018-.00006.0354-.00269.05341-.00269A15.93094 15.93094 0 0 1 47.84985 101.45776zM125 100.70147c.018 0 .0354.00262.05341.00269l-8.40717-8.40747a9.97813 9.97813 0 0 1-1.91663 3.74036l5.42053 5.42072A15.93094 15.93094 0 0 1 125 100.70147zM109.32275 99.418A9.95989 9.95989 0 0 1 107 99.70141h-3.05029l7.90387 7.90436a16.11793 16.11793 0 0 1 2.67938-2.97717zM150.72131 147.69677h-43.4408l16.95752-15.032a15.87327 15.87327 0 0 1-4.88971-1.01172l-10.40009 9.21887 6.1615-11.61646a16.11355 16.11355 0 0 1-2.92755-3.01709L100.801 147.69677H67.199L55.81781 126.2384a16.11355 16.11355 0 0 1-2.92755 3.01709l6.1615 11.61646-10.40009-9.21887a15.87327 15.87327 0 0 1-4.88971 1.01172s10.89648 9.65912 16.95758 15.032H17.27869a2.017 2.017 0 1 0 0 4H150.72131a2.017 2.017 0 1 0 0-4zM102 20.17793a3 3 0 1 0-3-3A3.00344 3.00344 0 0 0 102 20.17793zm0-4.5a1.5 1.5 0 1 1-1.5 1.5A1.50148 1.50148 0 0 1 102 15.67793zM161.30471 49.69677a2 2 0 1 0 2 2A2.00229 2.00229 0 0 0 161.30471 49.69677zm0 3a1 1 0 1 1 1-1A1.001 1.001 0 0 1 161.30471 52.69677zM135 3.25426a2 2 0 1 0 2 2A2.00229 2.00229 0 0 0 135 3.25426zm0 3a1 1 0 1 1 1-1A1.001 1.001 0 0 1 135 6.25426zM153 31.69677a2 2 0 1 0 2 2A2.00229 2.00229 0 0 0 153 31.69677zm0 3a1 1 0 1 1 1-1A1.001 1.001 0 0 1 153 34.69677zM33 21.81138a2 2 0 1 0-2 2A2.00229 2.00229 0 0 0 33 21.81138zm-3 0a1 1 0 1 1 1 1A1.001 1.001 0 0 1 30 21.81138z"></path><polygon fill="#0bceb2" points="8.111 40.446 9.597 38.491 8.658 37.959 7.704 40.149 7.672 40.149 6.703 37.974 5.747 38.522 7.219 40.431 7.219 40.462 4.918 40.165 4.918 41.228 7.234 40.932 7.234 40.963 5.747 42.871 6.639 43.435 7.657 41.228 7.688 41.228 8.627 43.419 9.613 42.856 8.111 40.978 8.111 40.947 10.473 41.228 10.473 40.165 8.111 40.477 8.111 40.446"></polygon><polygon fill="#0bceb2" points="5.734 6.35 4.878 7.449 5.392 7.774 5.978 6.503 5.996 6.503 6.536 7.764 7.104 7.44 6.239 6.359 6.239 6.341 7.599 6.503 7.599 5.89 6.239 6.07 6.239 6.052 7.095 4.926 6.555 4.62 6.005 5.881 5.987 5.881 5.429 4.629 4.878 4.944 5.726 6.044 5.726 6.062 4.401 5.89 4.401 6.503 5.734 6.332 5.734 6.35"></polygon><polygon fill="#0bceb2" points="163.029 17.699 163.029 16.656 160.712 16.963 160.712 16.932 162.17 15.014 161.249 14.492 160.313 16.64 160.282 16.64 159.331 14.507 158.394 15.045 159.837 16.917 159.837 16.948 157.581 16.656 157.581 17.699 159.852 17.408 159.852 17.439 158.394 19.311 159.269 19.864 160.267 17.699 160.297 17.699 161.218 19.848 162.185 19.296 160.712 17.454 160.712 17.423 163.029 17.699"></polygon><polygon fill="#0bceb2" points="69.353 4.408 70.611 2.753 69.817 2.303 69.009 4.156 68.982 4.156 68.162 2.316 67.353 2.78 68.598 4.395 68.598 4.421 66.652 4.17 66.652 5.07 68.611 4.819 68.611 4.845 67.353 6.46 68.108 6.937 68.969 5.07 68.995 5.07 69.79 6.923 70.624 6.447 69.353 4.858 69.353 4.832 71.351 5.07 71.351 4.17 69.353 4.434 69.353 4.408"></polygon></svg>