<svg xmlns="http://www.w3.org/2000/svg" xmlns:xlink="http://www.w3.org/1999/xlink" viewBox="0 0 64 64" id="cloud-brain"><defs><linearGradient id="a" x1="7.511" x2="56.56" y1="71.553" y2=".516" gradientUnits="userSpaceOnUse"><stop offset="0" stop-color="#fff200"></stop><stop offset="1" stop-color="#cd118c"></stop></linearGradient><linearGradient id="b" x1="5.357" x2="54.406" y1="70.066" y2="-.971" xlink:href="#a"></linearGradient><linearGradient id="c" x1="-2.203" x2="46.846" y1="64.846" y2="-6.191" xlink:href="#a"></linearGradient></defs><g><path fill="url(#a)" d="M56,41.59V37a8.649,8.649,0,0,0-.08-1.15A11.007,11.007,0,0,0,51,15c-.15,0-.3,0-.46.01A9.986,9.986,0,0,0,35.39,9.73a13,13,0,0,0-24.36,5.45A10.957,10.957,0,0,0,2,26a11.1,11.1,0,0,0,6.08,9.84A8.8,8.8,0,0,0,8,37v4.59l-3.71,3.7A1.033,1.033,0,0,0,4,46v3a1,1,0,0,0,1,1H8v8a1,1,0,0,0,1,1h3a.988.988,0,0,0,.53-.15L14,57.93V61a1,1,0,0,0,1,1h3a.967.967,0,0,0,.55-.17l6-4A1,1,0,0,0,25,57l-.02-6H26a1.014,1.014,0,0,0,.8-.4l3-4A.984.984,0,0,0,30,46V40h4v6a.984.984,0,0,0,.2.6l3,4a1.014,1.014,0,0,0,.8.4h1.02L39,57a1,1,0,0,0,.45.83l6,4A.967.967,0,0,0,46,62h3a1,1,0,0,0,1-1V57.93l1.47.92A.988.988,0,0,0,52,59h3a1,1,0,0,0,1-1V50h3a1,1,0,0,0,1-1V46a1.033,1.033,0,0,0-.29-.71ZM4,26a8.95,8.95,0,0,1,8.1-8.95A1.057,1.057,0,0,0,13,16a11,11,0,0,1,21.11-4.33,1,1,0,0,0,.7.58.965.965,0,0,0,.89-.23,7.984,7.984,0,0,1,13.11,4.27,1.007,1.007,0,0,0,1.1.78A8.862,8.862,0,0,1,51,17a9,9,0,0,1,4.42,16.84A9.012,9.012,0,0,0,47,28H42V26h3a1,1,0,0,0,.58-.19l2.33-1.67a3.375,3.375,0,1,0-.88-1.83L44.68,24H42V21a1,1,0,0,0-1-1H38V16H36v4H33V16H31v4H28V16H26v4H23a1,1,0,0,0-1,1v3H19.32l-2.35-1.69A2.962,2.962,0,0,0,17,22a3.021,3.021,0,1,0-.91,2.14l2.33,1.67A1,1,0,0,0,19,26h3v2H17a9.012,9.012,0,0,0-8.42,5.84A9.07,9.07,0,0,1,4,26Zm45-4a1,1,0,1,1,1,1A1,1,0,0,1,49,22ZM15,22a1,1,0,1,1-1-1A1,1,0,0,1,15,22Zm2.7,38H16V56.68l4.53-2.83A1.012,1.012,0,0,0,21,53V51h1.98L23,56.47ZM28,45.67,25.5,49H20a1,1,0,0,0-1,1v2.45L11.71,57H10V49a1,1,0,0,0-1-1H6V46.41l3.71-3.7A1.033,1.033,0,0,0,10,42V37a7.008,7.008,0,0,1,7-7h5v3H20a.984.984,0,0,0-.6.2l-1.74,1.3A3.059,3.059,0,0,0,16,34a3,3,0,1,0,3,3,2.914,2.914,0,0,0-.15-.89L20.33,35H22v4a1,1,0,0,0,1,1h5ZM17,37a1,1,0,1,1-1-1A1,1,0,0,1,17,37Zm7,1V22H40V38ZM48,60H46.3L41,56.47,41.02,51H43v2a1.012,1.012,0,0,0,.47.85L48,56.68ZM58,48H55a1,1,0,0,0-1,1v8H52.29L45,52.45V50a1,1,0,0,0-1-1H38.5L36,45.67V40h5a1,1,0,0,0,1-1V35h1.67l1.48,1.11A2.914,2.914,0,0,0,45,37a3,3,0,1,0,3-3,3.059,3.059,0,0,0-1.66.5L44.6,33.2A.984.984,0,0,0,44,33H42V30h5a7.008,7.008,0,0,1,7,7v5a1.033,1.033,0,0,0,.29.71L58,46.41ZM47,37a1,1,0,1,1,1,1A1,1,0,0,1,47,37Z"></path><path fill="url(#b)" d="M26,27.959V35a1,1,0,0,0,1,1H37a1,1,0,0,0,1-1V25a1,1,0,0,0-1-1H30.009a1,1,0,0,0-.7.287L26.3,27.246A1,1,0,0,0,26,27.959Zm2,.419L30.418,26H36v8H28Z"></path><circle cx="26" cy="24" r="1" fill="url(#c)"></circle></g></svg>