<svg xmlns="http://www.w3.org/2000/svg" xmlns:xlink="http://www.w3.org/1999/xlink" width="32" height="32" id="game"><defs><linearGradient id="a"><stop offset="0" stop-color="#000092"></stop><stop offset="1" stop-color="#ff00f3"></stop></linearGradient><linearGradient id="b" x2="29" y1="16" y2="16" gradientUnits="userSpaceOnUse" xlink:href="#a"></linearGradient></defs><path style="text-indent:0;text-align:start;line-height:normal;text-transform:none;block-progression:tb;marker:none;-inkscape-font-specification:Sans" fill="url(#b)" d="M16 0c-2.203 0-4 1.797-4 4 0 2.034 1.532 3.69 3.5 3.938V9.5c0 .262.238.5.5.5h2c.373 0 .593.104.75.281.157.177.25.425.25.688 0 .262-.093.541-.25.719-.157.177-.377.28-.75.28h-4c-.623 0-1.16.274-1.5.657-.34.383-.5.859-.5 1.344 0 .484.16.991.5 1.375.34.383.877.625 1.5.625h1.5v.969H7.875a.501.501 0 0 0-.156.03c-.075 0-.144-.028-.219-.03a.5.5 0 0 0-.031 0C3.51 16.938 0 20.483 0 24.468 0 28.454 3.51 32 7.469 32c2.97 0 5.75-1.932 6.875-4.688h3.312c1.126 2.756 3.906 4.684 6.875 4.688C28.49 32 32 28.453 32 24.469c0-3.985-3.51-7.532-7.469-7.532-.07.001-.149.029-.218.032h-.032a.5.5 0 0 0-.031 0 .501.501 0 0 0-.125-.032H16.5V15.47a.52.52 0 0 0-.5-.5h-2c-.373 0-.593-.136-.75-.313a1.04 1.04 0 0 1-.25-.687c0-.263.093-.51.25-.688.157-.177.377-.312.75-.312h4c.623 0 1.16-.242 1.5-.625.34-.384.5-.89.5-1.375s-.16-.96-.5-1.344C19.16 9.242 18.623 9 18 9h-1.5V7.937C18.468 7.69 20 6.034 20 4c0-2.203-1.797-4-4-4zm0 1c1.663 0 3 1.337 3 3a2.998 2.998 0 0 1-2.875 3h-.25A2.998 2.998 0 0 1 13 4c0-1.663 1.337-3 3-3zm1.156 1.469L15.5 4.125l-.656-.656-.688.687 1 1 .344.375.344-.375 2-2zM7.47 17.938c.12 0 .224.02.343.03a.501.501 0 0 0 .157-.03h16.093c.04.015.083.026.125.03.12-.01.224-.03.344-.03 3.346 0 6.469 3.148 6.469 6.53C31 27.853 27.877 31 24.531 31c-2.63 0-5.215-1.838-6.093-4.344a.514.514 0 0 0-.47-.343h-3.937a.514.514 0 0 0-.469.343c-.878 2.506-3.464 4.34-6.093 4.344C4.123 31 1 27.852 1 24.469c0-3.383 3.123-6.532 6.469-6.532zm17.093 1.656c-.96 0-1.75.789-1.75 1.75 0 .96.79 1.75 1.75 1.75s1.75-.79 1.75-1.75c0-.961-.79-1.75-1.75-1.75zm0 1c.416 0 .75.325.75.75 0 .424-.334.75-.75.75a.743.743 0 0 1-.75-.75c0-.425.335-.75.75-.75zm-17.468.218a.502.502 0 0 0-.125.032.516.516 0 0 0-.375.5v2.625H4a.52.52 0 0 0-.531.531.52.52 0 0 0 .531.469h2.594v2.625a.52.52 0 0 0 .5.507.52.52 0 0 0 .5-.507v-2.625h2.593a.52.52 0 0 0 .508-.5.52.52 0 0 0-.507-.5H7.594v-2.625a.52.52 0 0 0-.5-.532zm6.687 1.657a.532.532 0 0 0-.39.61.532.532 0 0 0 .609.39h1a.52.52 0 0 0 .507-.5.52.52 0 0 0-.507-.5c-.4-.002-.835 0-1.219 0zm3 0a.532.532 0 0 0-.39.61.532.532 0 0 0 .609.39h1a.52.52 0 0 0 .507-.5.52.52 0 0 0-.507-.5h-1.219zm4.688.25c-.96 0-1.75.789-1.75 1.75 0 .96.79 1.75 1.75 1.75s1.75-.79 1.75-1.75c0-.961-.79-1.75-1.75-1.75zm6.187 0c-.96 0-1.75.789-1.75 1.75 0 .96.79 1.75 1.75 1.75s1.75-.79 1.75-1.75c0-.961-.79-1.75-1.75-1.75zm-6.187 1c.415 0 .75.325.75.75 0 .424-.335.75-.75.75a.743.743 0 0 1-.75-.75c0-.425.334-.75.75-.75zm6.187 0c.416 0 .75.325.75.75 0 .424-.334.75-.75.75a.743.743 0 0 1-.75-.75c0-.425.335-.75.75-.75zm-3.093 2.125c-.96 0-1.75.789-1.75 1.75 0 .96.79 1.75 1.75 1.75s1.75-.79 1.75-1.75c0-.961-.79-1.75-1.75-1.75zm0 1c.415 0 .75.325.75.75 0 .424-.335.75-.75.75a.743.743 0 0 1-.75-.75c0-.425.334-.75.75-.75z" color="#000" font-family="Sans" font-weight="400" overflow="visible"></path></svg>