<svg xmlns="http://www.w3.org/2000/svg" enable-background="new 0 0 2048 2048" viewBox="0 0 2048 2048" id="insecure-code"><path fill="#e1efff" d="M1405.1,1356.5H316c-33.14,0-60-26.86-60-60V514.45c0-33.14,26.86-60,60-60h1089.1c33.14,0,60,26.86,60,60
				v782.05C1465.1,1329.64,1438.23,1356.5,1405.1,1356.5z"></path><path fill="#f7e07f" d="M1465.1,614.86H256v0V503.2c0-26.92,21.83-48.75,48.75-48.75h1111.59c26.93,0,48.75,21.83,48.75,48.75
					V614.86L1465.1,614.86z"></path><path fill="#e6c86b" d="M1355.3,554.15H870.2c-10.77,0-19.5-8.73-19.5-19.5s8.73-19.5,19.5-19.5h485.1
						c10.77,0,19.5,8.73,19.5,19.5S1366.07,554.15,1355.3,554.15z"></path><circle cx="389.77" cy="534.65" r="23.98" fill="#e6c86b"></circle><circle cx="490.12" cy="534.65" r="23.98" fill="#e6c86b"></circle><circle cx="590.48" cy="534.65" r="23.98" fill="#e6c86b"></circle><g><path fill="#72b8ce" d="M540.09 1107.99c-3.48 0-6.99-1.1-9.97-3.38l-138.6-105.86c-4.07-3.11-6.46-7.94-6.46-13.07 0-5.13 2.39-9.96 6.46-13.07l138.6-105.86c7.22-5.51 17.54-4.13 23.05 3.09 5.51 7.22 4.13 17.54-3.09 23.05l-121.49 92.79 121.49 92.79c7.22 5.51 8.6 15.83 3.09 23.05C549.93 1105.76 545.04 1107.99 540.09 1107.99zM776.66 1107.99c-4.95 0-9.85-2.23-13.08-6.46-5.51-7.22-4.13-17.54 3.09-23.05l121.49-92.79-121.49-92.79c-7.22-5.51-8.6-15.83-3.09-23.05 5.51-7.22 15.83-8.6 23.05-3.09l138.6 105.86c4.07 3.11 6.46 7.94 6.46 13.07 0 5.13-2.39 9.96-6.46 13.07l-138.6 105.86C783.65 1106.89 780.14 1107.99 776.66 1107.99z"></path><g><path fill="#72b8ce" d="M613.09,1164.2c-1.47,0-2.95-0.2-4.44-0.61c-8.75-2.44-13.86-11.52-11.41-20.27l90.58-324.13
					c2.44-8.75,11.52-13.86,20.27-11.41c8.75,2.44,13.86,11.52,11.41,20.27l-90.58,324.13
					C626.89,1159.44,620.28,1164.2,613.09,1164.2z"></path></g></g><g><path fill="#465a65" d="M1430.61,1140.27l342.01,342.01c26.06,26.06,25.94,68.59-0.96,93.78c-12.45,11.66-28.38,17.49-44.3,17.49
			c-16.59,0-33.19-6.33-45.85-18.99l-342.6-342.6L1430.61,1140.27z"></path><circle cx="1325.72" cy="1127.07" r="313.6" fill="#33444d"></circle><circle cx="1325.72" cy="1127.07" r="239.79" fill="#d6f4ff"></circle><path fill="#b9d1db" d="M1391,1103.23c-8.71,0-15.78-7.06-15.78-15.78v-41.97c0-6.69-1.31-13.17-3.89-19.27
					c-2.49-5.89-6.06-11.19-10.61-15.74c-4.55-4.55-9.84-8.12-15.74-10.61c-6.1-2.58-12.58-3.89-19.27-3.89
					c-6.69,0-13.17,1.31-19.27,3.89c-5.89,2.49-11.19,6.06-15.74,10.61c-4.55,4.55-8.12,9.84-10.61,15.74
					c-2.58,6.1-3.89,12.58-3.89,19.27v41.97c0,8.71-7.06,15.78-15.78,15.78s-15.78-7.06-15.78-15.78v-41.97
					c0-10.93,2.15-21.55,6.38-31.56c4.08-9.66,9.93-18.32,17.36-25.76c7.44-7.44,16.1-13.28,25.76-17.36
					c10.01-4.23,20.63-6.38,31.56-6.38c10.93,0,21.55,2.15,31.56,6.38c9.66,4.08,18.32,9.93,25.76,17.36
					c7.44,7.44,13.28,16.1,17.36,25.76c4.23,10.01,6.38,20.63,6.38,31.56v41.97C1406.78,1096.17,1399.72,1103.23,1391,1103.23z"></path><path fill="#f7e07f" d="M1419.25,1255.94h-187.06c-11.05,0-20-8.95-20-20v-133.47c0-11.05,8.95-20,20-20h187.06
					c11.05,0,20,8.95,20,20v133.47C1439.25,1246.99,1430.29,1255.94,1419.25,1255.94z"></path><circle cx="1325.72" cy="1147.46" r="31.42" fill="#ebcd6d"></circle><path fill="#ebcd6d" d="M1325.72,1222.37c-8.72,0-15.78-7.06-15.78-15.78v-32.93c0-8.71,7.06-15.78,15.78-15.78
							c8.71,0,15.78,7.06,15.78,15.78v32.93C1341.5,1215.31,1334.43,1222.37,1325.72,1222.37z"></path></g></svg>