<svg xmlns="http://www.w3.org/2000/svg" enable-background="new 0 0 512 512" version="1" viewBox="0 0 512 512" id="machine-hand"><rect width="132.4" height="149.7" x="349.9" y="351.8" fill="#EC2127"></rect><path fill="#010101" d="M474.8,351.8c0,48.2,0,96.4,0,144.5c0,1.7,0,3.4,0,5.1c2.5-2.5,5-5,7.5-7.5c-44.1,0-88.3,0-132.4,0
						c2.5,2.5,5,5,7.5,7.5c0-48.2,0-96.4,0-144.5c0-1.7,0-3.4,0-5.1c-2.5,2.5-5,5-7.5,7.5c44.1,0,88.3,0,132.4,0c9.7,0,9.7-15,0-15
						c-44.1,0-88.3,0-132.4,0c-4.1,0-7.5,3.4-7.5,7.5c0,48.2,0,96.4,0,144.5c0,1.7,0,3.4,0,5.1c0,4.1,3.4,7.5,7.5,7.5
						c44.1,0,88.3,0,132.4,0c4.1,0,7.5-3.4,7.5-7.5c0-48.2,0-96.4,0-144.5c0-1.7,0-3.4,0-5.1C489.8,342.2,474.8,342.2,474.8,351.8z"></path><rect width="75.4" height="86.1" x="380" y="265.7" fill="#6FCCDD"></rect><path fill="#010101" d="M447.9,265.7c0,28.7,0,57.4,0,86.1c2.5-2.5,5-5,7.5-7.5c-25.1,0-50.3,0-75.4,0c2.5,2.5,5,5,7.5,7.5
						c0-28.7,0-57.4,0-86.1c-2.5,2.5-5,5-7.5,7.5c25.1,0,50.3,0,75.4,0c9.7,0,9.7-15,0-15c-25.1,0-50.3,0-75.4,0
						c-4.1,0-7.5,3.4-7.5,7.5c0,28.7,0,57.4,0,86.1c0,4.1,3.4,7.5,7.5,7.5c25.1,0,50.3,0,75.4,0c4.1,0,7.5-3.4,7.5-7.5
						c0-28.7,0-57.4,0-86.1C462.9,256,447.9,256,447.9,265.7z"></path><path fill="#F79420" d="M435,72.5v193.2h-32.3v-192c4.5,2.3,9.6,3.6,15.1,3.6C424,77.3,429.9,75.5,435,72.5z"></path><path fill="#010101" d="M427.5,72.5c0,49.6,0,99.3,0,148.9c0,14.8,0,29.5,0,44.3c2.5-2.5,5-5,7.5-7.5c-10.8,0-21.5,0-32.3,0
						c2.5,2.5,5,5,7.5,7.5c0-49.5,0-99.1,0-148.6c0-14.5,0-28.9,0-43.4c-3.8,2.2-7.5,4.3-11.3,6.5c13,6.2,27.3,6,39.9-1.2
						c8.4-4.8,0.8-17.8-7.6-13c-7.7,4.4-16.7,5-24.7,1.2c-5-2.4-11.3,0.4-11.3,6.5c0,49.5,0,99.1,0,148.6c0,14.5,0,28.9,0,43.4
						c0,4.1,3.4,7.5,7.5,7.5c10.8,0,21.5,0,32.3,0c4.1,0,7.5-3.4,7.5-7.5c0-49.6,0-99.3,0-148.9c0-14.8,0-29.5,0-44.3
						C442.5,62.8,427.5,62.8,427.5,72.5z"></path><path fill="#69BD45" d="M451.1,43.9c0,12.1-6.5,22.7-16.1,28.6c-5,3.1-10.9,4.8-17.2,4.8c-5.4,0-10.5-1.3-15.1-3.6v0h0
					c-10.9-5.5-18.3-16.8-18.3-29.8c0-18.4,14.9-33.4,33.4-33.4C436.2,10.5,451.1,25.4,451.1,43.9z"></path><path fill="#010101" d="M443.6,43.9c-0.4,18.7-19.9,31.5-37.2,23.3c1.2,2.2,2.5,4.3,3.7,6.5c0,0,0,0,0,0c0-4.1-3.4-7.5-7.5-7.5
						c0,0,0,0,0,0c1.3,0.3,2.5,0.7,3.8,1c-18.2-9.7-19.4-35.2-1.4-45.9C422.2,11.1,443.2,24.9,443.6,43.9c0.2,9.7,15.2,9.7,15,0
						C458,12.4,423.6-7.2,396.4,9c-12.6,7.5-19.8,21.9-19.5,36.3c0.2,8,3,15.9,7.6,22.3c3.7,5.1,11.2,13.5,18.1,13.5
						c-2.5-2.5-5-5-7.5-7.5c0,0,0,0,0,0c0,2.5,1.4,5.4,3.7,6.5c13.8,6.5,29.5,6,42.2-2.8c11.1-7.7,17.2-20.2,17.5-33.5
						C458.8,34.2,443.8,34.2,443.6,43.9z"></path><g><path fill="#010101" d="M395.2,73.7C395.2,73.7,395.2,73.7,395.2,73.7c3.8-2.1,7.5-4.3,11.3-6.5c0,0,0,0,0,0
						c-1.3,4.7-2.5,9.3-3.8,14c0,0,0,0,0,0c4.1,0,7.5-3.4,7.5-7.5c0-4.1-3.4-7.5-7.5-7.5c0,0,0,0,0,0c-3.3,0-6.3,2.3-7.2,5.5
						c-0.4,1.3-0.4,2.7,0,4c0.5,1.8,1.8,3.6,3.4,4.5c0,0,0,0,0,0c1.2,0.7,2.4,1,3.8,1c1.4,0,2.6-0.3,3.8-1c2.3-1.3,3.7-3.8,3.7-6.5
						c0,0,0,0,0,0c0-4.1-3.4-7.5-7.5-7.5C398.6,66.2,395.2,69.6,395.2,73.7z"></path></g><g><path fill="#F79420" d="M402.6,73.7H271.3l-20.5-20.5H141.6c1-2.9,1.5-6,1.5-9.2c0-3.6-0.7-7.1-1.9-10.2h106.9l23.2-23.2h146.4
					c-18.4,0-33.4,14.9-33.4,33.4C384.4,56.9,391.8,68.2,402.6,73.7z"></path><path fill="#010101" d="M402.6,66.2c-43.8,0-87.6,0-131.4,0c1.8,0.7,3.5,1.5,5.3,2.2c-4.1-4.1-8.2-8.2-12.4-12.4
						c-3.4-3.4-8.3-10.4-13.6-10.4c-8.9,0-17.8,0-26.7,0c-27,0-53.9,0-80.9,0c-0.5,0-0.9,0-1.4,0c2.4,3.2,4.8,6.3,7.2,9.5
						c2.4-7.7,2.3-15.8-0.4-23.5c-2.4,3.2-4.8,6.3-7.2,9.5c24.2,0,48.3,0,72.5,0c11,0,22,0,33,0c4.3,0,6.8-2.2,9.6-5.1
						c5.3-5.3,10.6-10.6,15.9-15.9c1.5-1.5,3-3,4.4-4.4c-1.8,0.7-3.5,1.5-5.3,2.2c47.7,0,95.4,0,143,0c1.1,0,2.3,0,3.4,0
						c0-5,0-10,0-15c-18.3,0.4-33.9,12.1-39.3,29.6c-5.7,18.4,3.8,38.7,20.4,47.5c8.5,4.6,16.1-8.4,7.6-13
						c-11.3-6-16.9-18.1-13.5-30.6c3-11.1,13.6-18.3,24.8-18.6c9.7-0.2,9.7-15,0-15c-47.7,0-95.4,0-143,0c-1.1,0-2.2,0-3.4,0
						c-4,0-6.6,3.5-9.2,6.1c-6.4,6.4-12.8,12.8-19.3,19.3c1.8-0.7,3.5-1.5,5.3-2.2c-35.6,0-71.2,0-106.9,0c-4.6,0-8.9,4.8-7.2,9.5
						c1.9,5.3,2,10.1,0.3,15.5c-1.5,4.7,2.5,9.5,7.2,9.5c36.4,0,72.8,0,109.1,0c-1.8-0.7-3.5-1.5-5.3-2.2c4.1,4.1,8.2,8.2,12.4,12.4
						c3.4,3.4,8.3,10.4,13.6,10.4c7.7,0,15.4,0,23.1,0c30.3,0,60.6,0,90.9,0c5.8,0,11.5,0,17.3,0C412.3,81.2,412.3,66.2,402.6,66.2z
						"></path></g><g><path fill="#69BD45" d="M143.2,43.9c0,3.2-0.5,6.3-1.5,9.2v0c-3.8,11.2-14.5,19.3-27,19.3c-15.8,0-28.5-12.8-28.5-28.5
					s12.8-28.5,28.5-28.5c12.1,0,22.5,7.6,26.6,18.3h0C142.5,36.8,143.2,40.3,143.2,43.9z"></path><path fill="#010101" d="M135.7,43.9c-0.1,3.2-1.5,6.2-1.5,9.2c0-2.9-0.8,0.3-1.2,1.2c-0.5,1-1.2,2-1.9,2.9
						c-3.3,4.1-8.3,7-13.5,7.6c-11,1.4-20.6-5.7-23.4-16.2c-2.7-10.1,3.6-21,13.2-24.5c10.3-3.8,22.5,1.3,26.7,11.5
						c1.3,3.1,3.6,5.5,7.2,5.5c0,0,0,0,0,0c-2.4-1.8-4.8-3.7-7.2-5.5C135,38.4,135.6,41,135.7,43.9c0.3,9.6,15.3,9.7,15,0
						c-0.1-4.2-0.8-8.3-2.2-12.2c-1.1-3.2-3.7-5.5-7.2-5.5c0,0,0,0,0,0c2.4,1.8,4.8,3.7,7.2,5.5c-7.2-17.6-25.1-27.4-43.9-22.4
						C87.1,13.9,76.2,32.4,79.1,50c3,17.8,19.1,30.3,36.9,29.9c20.2-0.5,34.1-18.2,34.6-36C150.9,34.2,135.9,34.2,135.7,43.9z"></path></g><g><path fill="#F79420" d="M141.6,53.1v162.1H86.1V43.9c0,15.8,12.8,28.5,28.5,28.5C127.1,72.4,137.8,64.3,141.6,53.1z"></path><path fill="#010101" d="M134.1,53.1c0,49.4,0,98.8,0,148.2c0,4.6,0,9.3,0,13.9c2.5-2.5,5-5,7.5-7.5c-18.5,0-37,0-55.5,0
					c2.5,2.5,5,5,7.5,7.5c0-49.8,0-99.5,0-149.3c0-7.4,0-14.7,0-22.1c-5,0-10,0-15,0c0.4,16.9,11.9,31.6,28.6,35.2
					c18.2,3.9,35.4-7.1,41.6-24c3.4-9.1-11.1-13-14.5-4c-3.4,9.3-13.3,15.2-23.2,13.5C101,62.9,93.8,54.1,93.6,43.9
					c-0.2-9.7-15-9.7-15,0c0,49.8,0,99.5,0,149.3c0,7.4,0,14.7,0,22.1c0,4.1,3.4,7.5,7.5,7.5c18.5,0,37,0,55.5,0
					c4.1,0,7.5-3.4,7.5-7.5c0-49.4,0-98.8,0-148.2c0-4.6,0-9.3,0-13.9C149.1,43.5,134.1,43.5,134.1,53.1z"></path></g><g><polygon fill="#736357" points="58.5 265.4 58.5 299.1 74 299.1 74 325.6 29.7 325.6 29.7 243.4 57.8 215.2 114.6 215.2 114.6 251.3 72.6 251.3"></polygon><path fill="#010101" d="M51,265.4c0,11.2,0,22.4,0,33.6c0,4.1,3.4,7.5,7.5,7.5c5.2,0,10.4,0,15.6,0c-2.5-2.5-5-5-7.5-7.5
					c0,8.9,0,17.7,0,26.6c2.5-2.5,5-5,7.5-7.5c-14.8,0-29.6,0-44.4,0c2.5,2.5,5,5,7.5,7.5c0-27.4,0-54.8,0-82.3
					c-0.7,1.8-1.5,3.5-2.2,5.3c9.4-9.4,18.8-18.8,28.2-28.1c-1.8,0.7-3.5,1.5-5.3,2.2c18.9,0,37.9,0,56.8,0c-2.5-2.5-5-5-7.5-7.5
					c0,12,0,24.1,0,36.1c2.5-2.5,5-5,7.5-7.5c-11.8,0-23.7,0-35.5,0c-4.9,0-9.1-0.6-12.9,3.2c-4.3,4.3-8.7,8.7-13,13
					c-6.8,6.8,3.8,17.5,10.6,10.6c4.7-4.7,9.4-9.4,14.1-14.1c-1.8,0.7-3.5,1.5-5.3,2.2c14,0,28,0,42.1,0c4.1,0,7.5-3.4,7.5-7.5
					c0-12,0-24.1,0-36.1c0-4.1-3.4-7.5-7.5-7.5c-11.8,0-23.5,0-35.3,0c-6.3,0-12.7,0-19,0c-4.4,0-7.3,1.6-10.3,4.7
					c-5.2,5.2-10.5,10.5-15.7,15.7c-3.5,3.5-8.6,7.1-11.1,11.4c-1.8,3-1,7.9-1,11.2c0,6.7,0,13.3,0,20c0,18.3,0,36.5,0,54.8
					c0,4.1,3.4,7.5,7.5,7.5c14.8,0,29.6,0,44.4,0c4.1,0,7.5-3.4,7.5-7.5c0-8.9,0-17.7,0-26.6c0-4.1-3.4-7.5-7.5-7.5
					c-5.2,0-10.4,0-15.6,0c2.5,2.5,5,5,7.5,7.5c0-11.2,0-22.4,0-33.6C66,255.7,51,255.7,51,265.4z"></path></g><g><polygon fill="#736357" points="199.6 243.4 199.6 325.6 156.7 325.6 156.7 299.1 170.8 299.1 170.8 265.4 156.7 251.3 114.6 251.3 114.6 215.2 171.4 215.2"></polygon><path fill="#010101" d="M192.1,243.4c0,27.4,0,54.8,0,82.3c2.5-2.5,5-5,7.5-7.5c-14.3,0-28.6,0-42.9,0c2.5,2.5,5,5,7.5,7.5
								c0-8.9,0-17.7,0-26.6c-2.5,2.5-5,5-7.5,7.5c4.7,0,9.4,0,14.1,0c4.1,0,7.5-3.4,7.5-7.5c0-9.1,0-18.3,0-27.4
								c0-4,0.7-8.6-2.4-11.7c-3.6-3.6-7.2-7.2-10.9-10.9c-2.9-2.9-5.3-5.2-9.7-5.2c-4.6,0-9.2,0-13.8,0c-9,0-17.9,0-26.9,0
								c2.5,2.5,5,5,7.5,7.5c0-12,0-24.1,0-36.1c-2.5,2.5-5,5-7.5,7.5c18.9,0,37.9,0,56.8,0c-1.8-0.7-3.5-1.5-5.3-2.2
								c9.4,9.4,18.8,18.8,28.1,28.1c6.8,6.8,17.5-3.8,10.6-10.6c-6.3-6.3-12.6-12.6-18.9-18.9c-2.9-2.9-5.8-5.8-8.7-8.7
								c-2.5-2.5-5.2-2.8-8.4-2.8c-18.1,0-36.2,0-54.3,0c-4.1,0-7.5,3.4-7.5,7.5c0,12,0,24.1,0,36.1c0,4.1,3.4,7.5,7.5,7.5
								c14,0,28,0,42.1,0c-1.8-0.7-3.5-1.5-5.3-2.2c4.7,4.7,9.4,9.4,14.1,14.1c-0.7-1.8-1.5-3.5-2.2-5.3c0,11.2,0,22.4,0,33.6
								c2.5-2.5,5-5,7.5-7.5c-4.7,0-9.4,0-14.1,0c-4.1,0-7.5,3.4-7.5,7.5c0,8.9,0,17.7,0,26.6c0,4.1,3.4,7.5,7.5,7.5
								c14.3,0,28.6,0,42.9,0c4.1,0,7.5-3.4,7.5-7.5c0-27.4,0-54.8,0-82.3C207.1,233.7,192.1,233.7,192.1,243.4z"></path><g><path fill="#010101" d="M72.6,243.8c-0.1,0-0.2,0-0.3,0c-4.1,0-7.5,3.4-7.5,7.5c0,4.1,3.4,7.5,7.5,7.5c0.1,0,0.2,0,0.3,0
								c4.1,0,7.5-3.4,7.5-7.5C80.1,247.2,76.6,243.8,72.6,243.8L72.6,243.8z"></path></g></g></svg>