<svg xmlns="http://www.w3.org/2000/svg" width="48" height="48" id="code"><g fill="#fff" transform="translate(7.995 -1011.561)"><circle cx="16.005" cy="1035.561" r="24" fill="#1d67b1"></circle><path style="line-height:normal;text-indent:0;text-align:start;text-decoration-line:none;text-transform:none;block-progression:tb" fill="#154082" d="M28.432 47.57a24 24 0 0 0 1.988-.445 24 24 0 0 0 2.277-.756 24 24 0 0 0 2.19-.98 24 24 0 0 0 2.08-1.194 24 24 0 0 0 1.951-1.394 24 24 0 0 0 1.803-1.584 24 24 0 0 0 1.634-1.756 24 24 0 0 0 1.454-1.91 24 24 0 0 0 1.254-2.045 24 24 0 0 0 1.042-2.16 24 24 0 0 0 .823-2.254 24 24 0 0 0 .593-2.324 24 24 0 0 0 .055-.364L35.223 16.051l-.026-.026v-.002c-.24-.225-.525-.339-.804-.41-.558-.142-1.136-.119-1.457-.119v1.004l1.664 1.664v3.824c0 .086.008.164.025.237v.002c.017.073.042.14.07.205v.002c.058.128.135.242.213.353v.002c.156.224.344.432.524.627v.002c.18.195.352.375.466.51v.002l.02.023-.08.078-6.006-6.006c-.008-.008-.018-.014-.027-.021-.007-.006-.01-.014-.018-.02l-1.982-1.425a.328.328 0 0 0-.239-.063v.002a.316.316 0 0 0-.205.133l-1.207 1.676.002.002-.002.002 8.424 8.423v.664l-6.498-6.498v-.002l-2.492-1.765v.002l-2.893 3.996-7.63-7.631v-.002c-.322 0-.9-.023-1.458.12-.279.07-.566.184-.806.41v.001c-.06.056-.116.12-.164.19v.002c-.049.07-.092.145-.127.226v.002a1.375 1.375 0 0 0-.08.258v.002c-.019.09-.03.181-.03.275v4.997l-.002-.002c-.004-.009-.043.096-.107.203-.012.02-.004.01-.02.033v.002c-.106.152-.27.339-.439.523v.002c-.17.185-.348.366-.496.541v.002c-.074.088-.141.17-.201.268v.002c-.03.048-.064.099-.09.164v.002a.662.662 0 0 0-.045.252v.002c0 .108.022.191.05.26v.001c.03.068.067.121.1.168v.002c.067.095.14.171.215.248v.002l.04.04.536.536c.125.134.245.272.325.393l.002.002c.095.147.154.277.154.357v5.034c0 .097.013.192.033.283.007.029.019.055.027.084.018.058.034.115.059.17.06.134.144.25.238.351.011.012.016.03.028.041L28.432 47.57z" color="#000" font-family="sans-serif" font-weight="400" transform="translate(-7.995 1011.561)"></path><path d="M25.352 7v1.002c.349 0 .852 0 1.209.088a.893.893 0 0 1 .369.17c.06.057.086.088.086.228v5.002c0 .345.152.577.308.801.156.224.344.433.524.629.18.196.352.377.466.512l.02.025c-.115.117-.294.28-.482.467-.379.375-.858.855-.858 1.562v5.032c0 .14-.025.166-.105.232-.08.066-.242.138-.442.182-.4.087-.862.064-1.095.064v1c.113 0 .72.04 1.306-.088.293-.063.6-.166.867-.387.268-.22.47-.592.47-1.003v-5.032c0-.164.229-.523.562-.853.166-.165.342-.321.494-.477.076-.078.146-.154.213-.25.066-.095.152-.211.152-.431 0-.218-.074-.323-.135-.42a2.22 2.22 0 0 0-.203-.27c-.148-.175-.324-.358-.494-.543a5.558 5.558 0 0 1-.44-.525c-.106-.153-.128-.276-.128-.229V8.486c0-.38-.163-.731-.403-.957-.24-.225-.525-.339-.804-.41C26.25 6.977 25.673 7 25.352 7ZM7.48 7.002c-.321 0-.899-.023-1.457.12-.279.07-.566.184-.806.41-.24.225-.4.576-.4.956v5.002c0-.047-.023.076-.13.229-.106.152-.269.34-.439.525-.17.185-.348.368-.496.543-.074.088-.14.172-.201.27-.06.098-.135.202-.135.42 0 .22.084.336.15.431.067.095.14.173.215.25.152.156.326.312.492.477.333.33.565.689.565.853v5.032c0 .411.2.783.467 1.003.267.221.576.324.869.387.585.127 1.193.088 1.306.088v-1c-.233 0-.696.022-1.095-.064-.2-.043-.363-.116-.444-.182-.08-.066-.103-.092-.103-.232v-5.032c0-.708-.481-1.187-.86-1.562-.189-.188-.367-.352-.482-.469l.02-.025c.114-.135.288-.316.468-.512a6.14 6.14 0 0 0 .524-.629c.156-.224.308-.456.308-.8V8.487c0-.14.025-.17.086-.228a.892.892 0 0 1 .368-.17c.356-.091.861-.088 1.21-.088zm12.502 1a.319.319 0 0 1 .239.06l1.982 1.426c.15.108.18.294.072.444l-1.193 1.658-2.512-1.78 1.207-1.675a.315.315 0 0 1 .205-.133zm-1.978 2.635 2.492 1.765-6.336 8.803-2.502-1.8zm-6.844 9.642 2.326 1.674-2.836 1.488z" color="#000" font-family="sans-serif" font-weight="400" overflow="visible" transform="translate(-.411 1020.06)" style="line-height:normal;text-indent:0;text-align:start;text-decoration-line:none;text-transform:none;block-progression:tb"></path></g></svg>